<svg width="24" height="28" viewBox="0 0 24 28" fill="none" xmlns="http://www.w3.org/2000/svg">
<path d="M0.333496 1.16667V26.8333C0.333496 27.1428 0.456412 27.4395 0.675205 27.6583C0.893997 27.8771 1.19074 28 1.50016 28H22.5002C22.8096 28 23.1063 27.8771 23.3251 27.6583C23.5439 27.4395 23.6668 27.1428 23.6668 26.8333V1.16667C23.6668 0.857247 23.5439 0.560501 23.3251 0.341709C23.1063 0.122916 22.8096 0 22.5002 0L1.50016 0C1.19074 0 0.893997 0.122916 0.675205 0.341709C0.456412 0.560501 0.333496 0.857247 0.333496 1.16667V1.16667ZM3.8335 5.83333H10.8335V12.8333H3.8335V5.83333ZM20.1668 22.1667H3.8335V19.8333H20.1668V22.1667ZM20.1668 17.5H3.8335V15.1667H20.1668V17.5ZM20.1668 12.8333H13.1668V10.5H20.1668V12.8333ZM20.1668 8.16667H13.1668V5.83333H20.1668V8.16667Z" fill="#3629B7"/>
</svg>
