<svg width="24" height="18" viewBox="0 0 24 18" fill="none" xmlns="http://www.w3.org/2000/svg">
<path d="M21.656 8.21042C22.1498 8.85625 22.1498 9.72812 21.656 10.3729C20.1008 12.4031 16.3696 16.5833 12.0133 16.5833C7.65709 16.5833 3.92584 12.4031 2.37063 10.3729C2.1304 10.0637 2 9.68325 2 9.29167C2 8.90008 2.1304 8.51965 2.37063 8.21042C3.92584 6.18021 7.65709 2 12.0133 2C16.3696 2 20.1008 6.18021 21.656 8.21042V8.21042Z" stroke="white" stroke-width="2.08333" stroke-linecap="round" stroke-linejoin="round"/>
<path d="M12.0133 12.4167C13.7392 12.4167 15.1383 11.0176 15.1383 9.29169C15.1383 7.5658 13.7392 6.16669 12.0133 6.16669C10.2874 6.16669 8.88831 7.5658 8.88831 9.29169C8.88831 11.0176 10.2874 12.4167 12.0133 12.4167Z" stroke="white" stroke-width="2.08333" stroke-linecap="round" stroke-linejoin="round"/>
</svg>
